HIERARCHY
ROOT Hips
{
	OFFSET -3.958830 18.904000 13.208200
	CHANNELS 6 Xposition Yposition Zposition Zrotation Yrotation Xrotation 
	JOINT LHipJoint
	{
		OFFSET 0.000000 0.000000 0.000000
		CHANNELS 3 Zrotation Yrotation Xrotation
		JOINT LeftUpLeg
		{
			OFFSET 1.800000 -1.400000 0.085000
			CHANNELS 3 Zrotation Yrotation Xrotation
			JOINT LeftLeg
			{
				OFFSET 2.215000 -6.000000 0.000000
				CHANNELS 3 Zrotation Yrotation Xrotation
				JOINT LeftFoot
				{
					OFFSET 2.500000 -6.900000 0.000000
					CHANNELS 3 Zrotation Yrotation Xrotation
					JOINT LeftToeBase
					{
						OFFSET 0.200000 -0.500000 1.950000
						CHANNELS 3 Zrotation Yrotation Xrotation
						End Site
						{
							OFFSET 0.000000 0.000000 0.000000
						}
					}
				}
			}
		}
	}
	JOINT RHipJoint
	{
		OFFSET 0.000000 0.000000 0.000000
		CHANNELS 3 Zrotation Yrotation Xrotation
		JOINT RightUpLeg
		{
			OFFSET -1.800000 -1.400000 0.085000
			CHANNELS 3 Zrotation Yrotation Xrotation
			JOINT RightLeg
			{
				OFFSET -2.215000 -6.000000 0.000000
				CHANNELS 3 Zrotation Yrotation Xrotation
				JOINT RightFoot
				{
					OFFSET -2.500000 -6.900000 0.000000
					CHANNELS 3 Zrotation Yrotation Xrotation
					JOINT RightToeBase
					{
						OFFSET -0.200000 -0.500000 1.950000
						CHANNELS 3 Zrotation Yrotation Xrotation
						End Site
						{
							OFFSET 0.000000 0.000000 0.000000
						}
					}
				}
			}
		}
	}
	JOINT LowerBack
	{
		OFFSET 0.000000 0.000000 0.000000
		CHANNELS 3 Zrotation Yrotation Xrotation
		JOINT Spine
		{
			OFFSET -0.087000 1.940000 -0.288900
			CHANNELS 3 Zrotation Yrotation Xrotation
			JOINT Spine1
			{
				OFFSET 0.000000 1.950000 0.060000
				CHANNELS 3 Zrotation Yrotation Xrotation
				JOINT Neck
				{
					OFFSET 0.000000 0.000000 0.000000
					CHANNELS 3 Zrotation Yrotation Xrotation
					JOINT Neck1
					{
						OFFSET 0.000000 1.600000 0.340000
						CHANNELS 3 Zrotation Yrotation Xrotation
						JOINT Head
						{
							OFFSET 0.000000 1.667000 -0.240000
							CHANNELS 3 Zrotation Yrotation Xrotation
							End Site
							{
								OFFSET 0.000000 0.000000 0.000000
							}
						}
					}
				}
				JOINT LeftShoulder
				{
					OFFSET 0.000000 0.000000 0.000000
					CHANNELS 3 Zrotation Yrotation Xrotation
					JOINT LeftArm
					{
						OFFSET 2.700000 1.550000 -0.730000
						CHANNELS 3 Zrotation Yrotation Xrotation
						JOINT LeftForeArm
						{
							OFFSET 5.450000 0.000000 0.000000
							CHANNELS 3 Zrotation Yrotation Xrotation
							JOINT LeftHand
							{
								OFFSET 3.450000 0.000000 0.000000
								CHANNELS 3 Zrotation Yrotation Xrotation
								JOINT LeftHandIndex1
								{
									OFFSET 0.750000 0.000000 0.000000
									CHANNELS 3 Zrotation Yrotation Xrotation
									End Site
									{
										OFFSET 0.000000 0.000000 0.000000
									}
								}
							}
						}
					}
				}
				JOINT RightShoulder
				{
					OFFSET 0.000000 0.000000 0.000000
					CHANNELS 3 Zrotation Yrotation Xrotation
					JOINT RightArm
					{
						OFFSET -2.700000 1.550000 -0.730000
						CHANNELS 3 Zrotation Yrotation Xrotation
						JOINT RightForeArm
						{
							OFFSET -5.450000 0.000000 0.000000
							CHANNELS 3 Zrotation Yrotation Xrotation
							JOINT RightHand
							{
								OFFSET -3.450000 0.000000 0.000000
								CHANNELS 3 Zrotation Yrotation Xrotation
								JOINT RightHandIndex1
								{
									OFFSET -0.750000 0.000000 0.000000
									CHANNELS 3 Zrotation Yrotation Xrotation
									End Site
									{
										OFFSET 0.000000 0.000000 0.000000
									}
								}
							}
						}
					}
				}
			}
		}
	}
}
MOTION
Frames: 6
Frame Time: 0.016667
1.691810 16.262650 -1.372910 -1.865776 19.948355 -0.698148 -15.632132 13.222508 3.329989 -3.879945 1.247973 8.509237 -10.216895 6.779583 5.556088 0.173451 5.288411 2.857750 0.432080 0.351200 0.228900 18.199077 -8.471982 4.189306 24.499318 6.888408 -38.330104 -20.591619 2.437530 47.116277 -0.864433 -6.282925 2.140785 0.351100 0.113690 0.073140 -2.966628 -5.128699 -8.406892 3.678164 -11.770132 22.327212 -5.774444 -9.936891 7.626304 1.162385 -0.728976 -9.002254 -4.167045 -1.169124 27.105566 3.308220 -2.915200 -12.278510 -14.222196 -13.679181 -2.057077 -1.281481 -29.554450 -4.003580 61.839654 -35.225924 -19.238228 -3.830017 2.806529 0.189290 0.073400 -0.035780 0.164840 12.221823 8.146600 10.434483 10.197310 -20.006430 -2.483798 -21.000786 13.223846 -1.441139 2.358421 -1.678308 -0.112090 0.215290 -0.088100 -0.105330 
1.773670 16.176090 -1.292260 0.117596 18.380748 0.355634 -15.706135 13.264782 3.492999 -5.459606 0.967475 8.242870 -13.037793 7.489075 7.165712 0.256007 5.568690 2.761890 0.434510 0.364230 0.211320 18.128272 -8.411584 4.056712 25.186158 5.860524 -34.658352 -17.910657 1.625373 38.772520 -0.539577 -4.736959 2.666826 0.359890 0.129140 0.071960 -2.734811 -5.381540 -8.374877 0.929179 -11.348793 20.461778 -6.160433 -9.736324 7.927196 1.101857 -1.280331 -9.005837 -5.221172 -0.644324 27.028675 3.527110 -3.006800 -11.793270 -13.589780 -13.566917 -2.144971 -3.150389 -30.857017 -3.471063 56.434322 -33.257609 -16.493079 -3.845258 2.862256 0.167310 0.081740 -0.046280 0.176530 11.765954 8.692663 10.381770 9.583661 -20.383705 -2.929518 -21.577701 17.506610 -2.058130 2.291999 -1.733766 -0.105570 0.217730 -0.089900 -0.089220 
1.859520 16.081530 -1.215410 1.611289 16.618968 0.996678 -15.783137 13.257420 3.645894 -5.894115 0.028232 7.569772 -17.417399 8.475615 8.906301 0.381014 6.037593 2.598793 0.424530 0.351720 0.216240 18.056173 -8.345193 3.940347 25.281015 5.059537 -30.767406 -14.392641 0.645901 32.952117 -0.341865 -3.719983 3.029281 0.346320 0.122160 0.073100 -2.487150 -5.559470 -8.404349 -1.781769 -10.739901 19.229987 -6.419721 -9.311476 8.051618 1.396032 -0.976514 -9.265931 -4.911558 0.146921 27.764841 3.514110 -2.124060 -11.325480 -13.426933 -14.208592 -1.926916 -4.550612 -31.182958 -3.308806 51.914779 -31.301726 -14.279081 -3.860342 2.895735 0.172710 0.081680 -0.040430 0.170200 11.063836 9.459352 10.510659 10.384115 -20.080519 -3.618930 -22.149604 20.633070 -2.536549 2.240908 -1.747188 -0.106030 0.205970 -0.091110 -0.096460 
1.946790 15.983220 -1.146620 2.824932 14.188052 1.178372 -15.866788 13.188909 3.832621 -5.250031 -1.767464 6.178226 -23.825413 10.013471 11.435728 0.591372 6.840327 2.325020 0.397910 0.314880 0.210120 17.978051 -8.287049 3.796835 24.592146 4.401232 -26.793018 -11.141474 -0.238525 29.962095 -0.264640 -3.299080 3.193132 0.315560 0.117460 0.071950 -2.212973 -5.687555 -8.480042 -4.551676 -9.559841 18.478279 -5.760498 -8.366068 7.875880 1.578725 -0.801197 -9.609811 -4.885248 0.764669 28.870750 3.780890 -1.467390 -10.704390 -13.514467 -14.868268 -1.562608 -6.709509 -31.337649 -3.005398 47.982524 -29.883447 -12.686969 -3.862199 2.912502 0.187030 0.075910 -0.036760 0.158050 10.876169 10.554941 10.684282 11.292655 -20.697097 -4.735680 -24.579713 25.036426 -3.557678 2.179983 -1.762382 -0.110820 0.193990 -0.081110 -0.104570 
2.020780 15.890450 -1.083210 3.712090 11.813162 0.739382 -15.931194 12.986290 4.077059 -2.370271 -4.475678 4.271310 -32.462053 12.316436 14.293296 0.900084 8.056050 1.904905 0.394100 0.305240 0.224280 17.920360 -8.234602 3.629500 23.600174 3.878576 -22.943708 -9.418568 -0.783917 29.032174 -0.293692 -3.287517 3.204974 0.297170 0.090140 0.072370 -1.994018 -5.647511 -8.595878 -7.149774 -8.272498 18.189727 -5.227840 -7.224305 7.673777 1.749355 -0.387584 -9.703308 -4.595016 1.246853 30.865181 4.328880 -0.806180 -10.811190 -14.128938 -15.445790 -1.390242 -9.179974 -31.739590 -2.633935 43.692497 -28.160105 -11.034494 -3.845952 2.915153 0.221250 0.052250 -0.009790 0.143380 11.220810 11.350872 10.673886 13.001731 -20.525644 -6.190095 -28.262890 29.801933 -5.217682 2.115076 -1.748443 -0.108280 0.184210 -0.079280 -0.118390 
2.077620 15.784450 -1.019640 4.431027 9.639860 0.314083 -15.985379 12.666849 4.435423 2.391653 -7.475675 1.400135 -42.664523 15.521046 17.102900 1.281440 9.495335 1.423107 0.394510 0.300700 0.241050 17.869869 -8.161865 3.419354 22.014452 3.642591 -20.151899 -7.707103 -1.465243 29.788544 -0.355625 -3.484378 3.146371 0.281730 0.063910 0.072820 -1.805984 -5.516719 -8.738978 -9.419160 -6.849794 18.222975 -4.231165 -5.975938 6.850574 1.903444 -0.149484 -9.529647 -4.471074 1.226516 32.377999 4.379770 -0.492090 -11.031090 -15.740445 -15.775070 -1.440698 -11.312862 -32.117917 -2.191145 39.301549 -27.182631 -9.574446 -3.824693 2.901458 0.248430 0.032060 0.015340 0.133680 12.654485 12.045157 10.590958 13.605015 -21.832595 -7.719804 -33.165669 36.586538 -8.132136 2.037309 -1.721864 -0.103100 0.177270 -0.083340 -0.129080 
